<svg id="Layer_1" data-name="Layer 1" xmlns="http://www.w3.org/2000/svg" viewBox="0 0 62.1 58"><defs><style>.cls-1{fill:#5dab5e;}.cls-1,.cls-2,.cls-3{fill-rule:evenodd;}.cls-2{fill:#f59e56;}.cls-3{fill:#fff;}</style></defs><title>Artboard 2</title><path class="cls-1" d="M1.69,32.37C-.68,2.3,36.09-11.38,53.4,17.45,42.11,24.87,33.63,34.56,26.22,45.13,19.3,36.62,11,32.65,1.69,32.37Z"/><path class="cls-1" d="M10.88,34.8a90.28,90.28,0,0,1,15.53,14A134.55,134.55,0,0,1,43.28,26.65a124,124,0,0,0-17.14,20A46.45,46.45,0,0,0,10.88,34.8Z"/><path class="cls-2" d="M2.27,32.75c2.56,13.7,10.9,19.89,22.13,22.39A45.28,45.28,0,0,0,2.27,32.75Z"/><path class="cls-2" d="M26.73,56.44c7-16.14,18.58-28.8,33.21-43.11l-5.17,8.56c4.33,22.82-12.46,33.28-28,34.55Z"/><path class="cls-3" d="M24.52,8.23c-1.5,2.31-2.31,6.43.25,7.74C27.92,14.4,26,10.44,25,8.14l-.38-5.73-.11,5.82Z"/><path class="cls-3" d="M18.82,15c.47,2.71,2.7,6.28,5.47,5.48,1.22-3.3-2.9-4.87-5.19-5.88l-4.18-3.92L18.82,15Z"/><path class="cls-3" d="M17.93,20.87c.53,3,3,7,6.09,6.1,1.36-3.68-3.22-5.42-5.77-6.55l-4.66-4.36,4.34,4.81Z"/><path class="cls-3" d="M15.92,26.72c.71,4,4,9.27,8.09,8.09,1.81-4.87-4.28-7.19-7.66-8.68l-6.19-5.8,5.76,6.39Z"/><path class="cls-3" d="M30.93,14.6c-.48,2.7-2.71,6.27-5.47,5.47-1.23-3.3,2.89-4.86,5.18-5.88l4.19-3.92-3.9,4.33Z"/><path class="cls-3" d="M31.81,20.47c-.53,3-3,7-6.09,6.1C24.36,22.9,29,21.15,31.49,20l4.66-4.37-4.34,4.81Z"/><path class="cls-3" d="M33.82,26.32c-.7,4-4,9.28-8.08,8.09-1.81-4.87,4.28-7.18,7.66-8.68l6.18-5.79-5.76,6.38Z"/></svg>