<svg id="Layer_1" data-name="Layer 1" xmlns="http://www.w3.org/2000/svg" viewBox="0 0 280.17 85.73"><defs><style>.cls-1,.cls-4{fill:#5dab5e;}.cls-1,.cls-2,.cls-3{fill-rule:evenodd;}.cls-2{fill:#f59e56;}.cls-3{fill:#fff;}</style></defs><title>Artboard 1 copy 2</title><path class="cls-1" d="M3,47.4C-.19,7.13,49-11.19,72.21,27.41,57.1,37.34,45.74,50.33,35.83,64.48,26.56,53.08,15.49,47.77,3,47.4Z"/><path class="cls-1" d="M15.28,50.65A120.14,120.14,0,0,1,36.07,69.37c6.57-10.44,14-20.82,22.59-29.64A165.7,165.7,0,0,0,35.71,66.45a62.18,62.18,0,0,0-20.43-15.8Z"/><path class="cls-2" d="M3.75,47.91c3.43,18.33,14.6,26.63,29.63,30a60.49,60.49,0,0,0-29.63-30Z"/><path class="cls-2" d="M36.51,79.61C45.93,58,61.38,41.05,81,21.89L74,33.35c5.81,30.57-16.67,44.56-37.53,46.26Z"/><path class="cls-3" d="M33.55,15.07c-2,3.08-3.1,8.61.33,10.36,4.21-2.1,1.62-7.4.32-10.49l-.5-7.66-.15,7.79Z"/><path class="cls-3" d="M25.91,24.12c.63,3.63,3.62,8.4,7.32,7.33,1.64-4.41-3.87-6.51-6.94-7.87l-5.6-5.25,5.22,5.79Z"/><path class="cls-3" d="M24.72,32c.71,4,4,9.36,8.16,8.16,1.82-4.91-4.32-7.25-7.73-8.76l-6.24-5.84L24.72,32Z"/><path class="cls-3" d="M22,39.83c.95,5.36,5.36,12.41,10.83,10.83C35.28,44.13,27.13,41,22.6,39l-8.28-7.76L22,39.83Z"/><path class="cls-3" d="M42.13,23.59c-.64,3.63-3.63,8.4-7.33,7.33-1.64-4.41,3.88-6.51,6.94-7.87l5.61-5.25-5.22,5.79Z"/><path class="cls-3" d="M43.31,31.46c-.71,4-4,9.36-8.15,8.16-1.83-4.91,4.31-7.25,7.72-8.76L49.12,25l-5.81,6.45Z"/><path class="cls-3" d="M46,39.3c-.94,5.36-5.36,12.41-10.82,10.83-2.43-6.53,5.73-9.62,10.25-11.63l8.28-7.76L46,39.3Z"/><path class="cls-4" d="M90.16,22.88l21.67,30.39V22.88h4.79v38h-5.29L90.22,31.28V60.91H85.43v-38Z"/><path class="cls-4" d="M147.46,60.91h-4.78V56.68a9.32,9.32,0,0,1-8.62,4.86,13.18,13.18,0,0,1-9.71-4,13.11,13.11,0,0,1,0-18.82,13.21,13.21,0,0,1,9.71-4,9.34,9.34,0,0,1,8.62,4.81V36.75h4.78Zm-4.78-10.84V46.21A9,9,0,0,0,134.06,39a8.4,8.4,0,0,0-6.18,2.64,8.9,8.9,0,0,0-2.62,6.53,8.76,8.76,0,0,0,2.62,6.47,8.42,8.42,0,0,0,6.18,2.62,9,9,0,0,0,8.62-7.19Z"/><path class="cls-4" d="M154.07,36.75V27.37h4.75v9.38h4.5v4.13h-4.5v20h-4.75v-20h-4.5V36.75Z"/><path class="cls-4" d="M175.84,61.22a10.25,10.25,0,0,1-7.6-2.8,9.64,9.64,0,0,1-2.86-6.87V36.73h4.78V51.37a5.55,5.55,0,0,0,1.72,4.12,5.37,5.37,0,0,0,3.94,1.61,5.23,5.23,0,0,0,3.78-1.65,5.55,5.55,0,0,0,1.66-4.08V36.73H186V51.55a9.78,9.78,0,0,1-2.9,6.93A9.89,9.89,0,0,1,175.84,61.22Z"/><path class="cls-4" d="M201,40.35a7.93,7.93,0,0,0-5.07,2.6,7.82,7.82,0,0,0-1.8,5.27V60.91h-4.79V36.75h4.79v3.44a6.58,6.58,0,0,1,4.54-3.94Z"/><path class="cls-4" d="M207.5,48.09v.08a8.8,8.8,0,0,0,2.62,6.47,8.58,8.58,0,0,0,12.39,0c.25-.25.73-.8,1.43-1.66l4.49,1.58a14.46,14.46,0,0,1-2.32,3,13.33,13.33,0,0,1-9.81,4,13.18,13.18,0,0,1-9.71-4,13.11,13.11,0,0,1,0-18.82,13.21,13.21,0,0,1,9.71-4,13.35,13.35,0,0,1,9.81,4,12.6,12.6,0,0,1,3.46,9.3Zm.85-4.18h15.83Q222.49,39,216.3,39T208.35,43.91Z"/><path class="cls-4" d="M237.13,22.88v38h-4.78v-38Z"/><path class="cls-4" d="M246.64,22.88v38h-4.78v-38Z"/><path class="cls-4" d="M254.73,48.09v.08a8.76,8.76,0,0,0,2.62,6.47,8.42,8.42,0,0,0,6.18,2.62,8.52,8.52,0,0,0,6.21-2.67c.25-.25.72-.8,1.43-1.66l4.49,1.58a14.46,14.46,0,0,1-2.32,3,13.33,13.33,0,0,1-9.81,4,13.18,13.18,0,0,1-9.71-4,13.11,13.11,0,0,1,0-18.82,13.21,13.21,0,0,1,9.71-4,13.35,13.35,0,0,1,9.81,4,12.64,12.64,0,0,1,3.46,9.3Zm.85-4.18h15.83q-1.7-4.9-7.88-4.91T255.58,43.91Z"/><path d="M124.61,64.9v1.3H119v3.16h5.13v1.3H119v5.07h-1.49V64.9Z"/><path d="M135.08,64.62A5.19,5.19,0,0,1,139,66.24a5.76,5.76,0,0,1,1.54,4.15,5.5,5.5,0,0,1-1.57,4,5.54,5.54,0,0,1-7.82,0,6.12,6.12,0,0,1,0-8.14A5.13,5.13,0,0,1,135.08,64.62Zm0,1.19a3.48,3.48,0,0,0-2.78,1.26,5.46,5.46,0,0,0,0,6.49,3.7,3.7,0,0,0,5.55,0,4.71,4.71,0,0,0,1.08-3.2,4.94,4.94,0,0,0-1.07-3.3A3.47,3.47,0,0,0,135.1,65.81Z"/><path d="M151.5,64.62a5.19,5.19,0,0,1,3.95,1.62A5.79,5.79,0,0,1,157,70.39a5.53,5.53,0,0,1-1.56,4A5.26,5.26,0,0,1,151.51,76a5.2,5.2,0,0,1-3.92-1.62,6.12,6.12,0,0,1,0-8.14A5.17,5.17,0,0,1,151.5,64.62Zm0,1.19a3.46,3.46,0,0,0-2.77,1.26,5.42,5.42,0,0,0,0,6.49,3.46,3.46,0,0,0,2.77,1.26,3.5,3.5,0,0,0,2.77-1.25,4.71,4.71,0,0,0,1.08-3.2,4.94,4.94,0,0,0-1.06-3.3A3.48,3.48,0,0,0,151.51,65.81Z"/><path d="M163,75.73V64.9h4.11a4.76,4.76,0,0,1,3.82,1.51,5.81,5.81,0,0,1,1.2,3.91,5.61,5.61,0,0,1-1.42,4.13,4.84,4.84,0,0,1-3.6,1.28Zm1.5-1.3h2.43a4.73,4.73,0,0,0,1.67-.24,2.51,2.51,0,0,0,1.09-.82,4.64,4.64,0,0,0,.89-3.05,4.54,4.54,0,0,0-1-3.24,3.41,3.41,0,0,0-2.6-.88h-2.43Z"/><path d="M196.18,64.9V75.73h-1.41V67.29l-3.12,8.44h-1.2l-3.12-8.44v8.44h-1.41V64.9h2l3.19,8.75,3.15-8.75Z"/><path d="M208.36,72.42h-4.08L203,75.73h-1.59l4.22-10.83h1.51l4,10.83h-1.59Zm-.44-1.25-1.54-4.4-1.63,4.4Z"/><path d="M217.87,71.15v4.58h-1.49V64.9h4.74a3.94,3.94,0,0,1,2.82.88,2.94,2.94,0,0,1,.93,2.25,2.85,2.85,0,0,1-.88,2.28,3.57,3.57,0,0,1-1.72.71l3.09,4.71h-1.71l-2.92-4.58Zm0-1.25h3.36a2.23,2.23,0,0,0,1.69-.52,1.81,1.81,0,0,0,.44-1.28,1.89,1.89,0,0,0-.62-1.48,2.25,2.25,0,0,0-1.52-.47h-3.35Z"/><path d="M237.94,64.9v1.3h-3.33v9.53h-1.49V66.2h-3.38V64.9Z"/></svg>